<?xml version="1.0" encoding="utf-8"?>
<!-- Generator: Adobe Illustrator 22.1.0, SVG Export Plug-In . SVG Version: 6.00 Build 0)  -->
<svg version="1.1" id="Layer_1" xmlns="http://www.w3.org/2000/svg" xmlns:xlink="http://www.w3.org/1999/xlink" x="0px" y="0px"
	 viewBox="0 0 31.9 32" style="enable-background:new 0 0 31.9 32;" xml:space="preserve">
<style type="text/css">
	.st0{fill:#BF00AC;}
	.st1{fill:#19D5DB;}
	.st2{fill:#BE054E;}
	.st3{fill:none;}
	.st4{fill:#C44343;}
	.st5{fill:url(#SVGID_1_);}
	.st6{fill:url(#SVGID_2_);}
	.st7{fill:url(#SVGID_3_);}
	.st8{fill:#BDE700;}
</style>
<path class="st0" d="M9.2,14.6"/>
<polygon class="st1" points="-11.9,1.6 -7.4,11.1 -14.9,30.4 -20,28.4 -19.6,14.6 "/>
<polygon class="st2" points="38.3,30.4 33.8,20.9 41.3,1.6 46.4,3.6 46,17.5 "/>
<line class="st3" x1="-62.3" y1="-3.2" x2="-47.2" y2="-3.2"/>
<line class="st3" x1="-43.7" y1="1.6" x2="-34.2" y2="-24.8"/>
<line class="st3" x1="-48.2" y1="-2.3" x2="-59" y2="-9.8"/>
<line class="st3" x1="-57" y1="-13" x2="-44" y2="-19.8"/>
<line class="st3" x1="-43.8" y1="-14.2" x2="-45.5" y2="-6.1"/>
<line class="st3" x1="-95.3" y1="-38" x2="-69.5" y2="5.5"/>
<line class="st3" x1="-67.2" y1="-1.7" x2="-64.5" y2="-20"/>
<line class="st3" x1="-68.5" y1="-21.8" x2="-84.2" y2="-21.3"/>
<line class="st3" x1="-91.2" y1="-18.1" x2="-105" y2="-0.8"/>
<line class="st3" x1="-90.7" y1="35.3" x2="-69" y2="12.3"/>
<line class="st3" x1="-40.9" y1="-12.8" x2="-60.1" y2="-51.2"/>
<line class="st3" x1="-73.7" y1="-21.7" x2="-73.7" y2="-21.7"/>
<polyline class="st3" points="-119.7,-2.3 -113.7,12.7 -103.5,7.5 -93.5,32 "/>
<polygon class="st4" points="-27.7,69.5 -36.2,59 -35.2,46.8 -17.2,45.2 -14.5,61 "/>
<path class="st1" d="M41.8,6.6"/>
<path class="st2" d="M10.4-20.8"/>
<g>
	<g>
	</g>
	<g>
	</g>
	<g>
		<linearGradient id="SVGID_1_" gradientUnits="userSpaceOnUse" x1="-59.6169" y1="6.5406" x2="-62.9163" y2="27.5152">
			<stop  offset="0" style="stop-color:#EDEEF5"/>
			<stop  offset="1" style="stop-color:#9086A3"/>
		</linearGradient>
		<polygon class="st5" points="-54.4,15.4 -54.4,30 -71.1,30 -71.1,22.9 		"/>
		<linearGradient id="SVGID_2_" gradientUnits="userSpaceOnUse" x1="-46.5828" y1="16.1023" x2="-55.3025" y2="35.0736">
			<stop  offset="0" style="stop-color:#EDEEF5"/>
			<stop  offset="1" style="stop-color:#9086A3"/>
		</linearGradient>
		<polygon class="st6" points="-44.9,19.7 -44.9,30 -54.4,30 -54.4,15.4 		"/>
		<linearGradient id="SVGID_3_" gradientUnits="userSpaceOnUse" x1="-63.0813" y1="42.5671" x2="-63.0813" y2="14.2161">
			<stop  offset="0" style="stop-color:#FA951F"/>
			<stop  offset="0.3004" style="stop-color:#FFD150"/>
			<stop  offset="1" style="stop-color:#E55000"/>
		</linearGradient>
		<path class="st7" d="M-59.8,20.9V30h2.2v-10L-59.8,20.9z M-68.5,30h2.2v-6.2l-2.2,1V30z M-64.2,30h2.2v-8.1l-2.2,1V30z"/>
	</g>
</g>
<circle class="st8" cx="-31.2" cy="-13.8" r="9.8"/>
<circle class="st2" cx="15.9" cy="14.4" r="11.3"/>
<path class="st1" d="M4.8,28.3h22.6C23.6,23,19.8,17.8,16,12.5C12.2,17.8,8.5,23,4.8,28.3z"/>
<path class="st1" d="M38,44.6"/>
</svg>
